<svg height="608" viewBox="0 -11 456 455" width="608" xmlns="http://www.w3.org/2000/svg" xmlns:xlink="http://www.w3.org/1999/xlink"><linearGradient id="a"><stop offset="0" stop-color="#00efd1"/><stop offset="1" stop-color="#00acea"/></linearGradient><linearGradient id="b" gradientUnits="userSpaceOnUse" x1="228" x2="228" xlink:href="#a" y1="-14.813" y2="454.024"/><linearGradient id="c" gradientUnits="userSpaceOnUse" x1="178" x2="178" xlink:href="#a" y1="-14.813" y2="454.024"/><linearGradient id="d" gradientUnits="userSpaceOnUse" x1="278" x2="278" xlink:href="#a" y1="-14.813" y2="454.024"/><linearGradient id="e" gradientUnits="userSpaceOnUse" x1="377" x2="377" xlink:href="#a" y1="-14.813" y2="454.024"/><linearGradient id="f" gradientUnits="userSpaceOnUse" x1="78" x2="78" xlink:href="#a" y1="-14.813" y2="454.024"/><linearGradient id="g" gradientUnits="userSpaceOnUse" x1="78.194" x2="78.194" xlink:href="#a" y1="-14.813" y2="454.024"/><linearGradient id="h" gradientUnits="userSpaceOnUse" x1="85.664" x2="85.664" xlink:href="#a" y1="-14.813" y2="454.024"/><path d="M404.734 39.188H364V8.5a8 8 0 00-16 0v30.688H113V8.5a8 8 0 00-16 0v30.688H51.266C22.984 39.18.043 62.081 0 90.358v292.262c0 28.266 23 51.567 51.266 51.567h353.468C433 434.188 456 410.887 456 382.62V90.36c-.043-28.277-22.984-51.18-51.266-51.172zM16 90.358c.035-19.445 15.816-35.187 35.266-35.171H97v30.53a8 8 0 0016 0v-30.53h235v30.53a8 8 0 0016 0v-30.53h40.734c19.45-.016 35.23 15.726 35.266 35.171v39.829H16zm388.734 327.829H51.266C31.824 418.188 16 402.058 16 382.62V146.187h424v236.434c0 19.438-15.824 35.566-35.266 35.566zm0 0" fill="url(#b)"/><path d="M219 194.188a8 8 0 00-8-8h-66a8 8 0 00-8 8v66a8 8 0 008 8h66a8 8 0 008-8zm-16 58h-50v-50h50zm0 0" fill="url(#c)"/><path d="M319 194.188a8 8 0 00-8-8h-66a8 8 0 00-8 8v66a8 8 0 008 8h66a8 8 0 008-8zm-16 58h-50v-50h50zm0 0" fill="url(#d)"/><path d="M418 194.188a8 8 0 00-8-8h-66a8 8 0 00-8 8v66a8 8 0 008 8h66a8 8 0 008-8zm-15 58h-51v-50h51zm0 0" fill="url(#e)"/><path d="M219 293.188a8 8 0 00-8-8h-66a8 8 0 00-8 8v66a8 8 0 008 8h66a8 8 0 008-8zm-16 58h-50v-50h50zm0 0" fill="url(#c)"/><path d="M119 293.188a8 8 0 00-8-8H45a8 8 0 00-8 8v66a8 8 0 008 8h66a8 8 0 008-8zm-15 58H53v-50h51zm0 0" fill="url(#f)"/><path d="M319 293.188a8 8 0 00-8-8h-66a8 8 0 00-8 8v66a8 8 0 008 8h66a8 8 0 008-8zm-16 58h-50v-50h50zm0 0" fill="url(#d)"/><path d="M418 293.188a8 8 0 00-8-8h-66a8 8 0 00-8 8v66a8 8 0 008 8h66a8 8 0 008-8zm-15 58h-51v-50h51zm0 0" fill="url(#e)"/><path d="M78.195 173.36c-28.734 0-52.023 23.288-52.023 52.019-.004 28.734 23.289 52.023 52.02 52.027 28.73 0 52.023-23.289 52.027-52.02-.031-28.718-23.305-51.995-52.024-52.027zm0 88.046c-19.898 0-36.027-16.133-36.023-36.027 0-19.895 16.129-36.024 36.027-36.024 19.895.004 36.024 16.137 36.02 36.032-.028 19.883-16.14 35.996-36.024 36.02zm0 0" fill="url(#g)"/><path d="M95.328 221.188H84v-17.833a8 8 0 00-16 0v25.7a7.9 7.9 0 007.746 8.133h19.582a8 8 0 000-16zm0 0" fill="url(#h)"/></svg>
