<svg width="100" height="100" viewBox="0 0 100 100" fill="none" xmlns="http://www.w3.org/2000/svg">
<g filter="url(#filter0_i)">
<path d="M85.2272 83.2872L66.5141 76.7362C69.8284 75.3087 76.0211 69.5877 77.8514 65.6685L85.2272 83.2872Z" fill="#FB5012"/>
</g>
<g filter="url(#filter1_ii)">
<path fill-rule="evenodd" clip-rule="evenodd" d="M24.9481 64.2216C22.3222 59.798 20.8145 54.6327 20.8145 49.1153C20.8145 32.7478 34.083 19.4792 50.4505 19.4792C66.8181 19.4792 80.0866 32.7478 80.0866 49.1153C80.0866 65.4829 66.8181 78.7514 50.4505 78.7514C45.1 78.7514 40.0807 77.3335 35.7478 74.8529L38.8773 73.8098C42.0531 75.3006 45.5634 76.1969 49.2648 76.3552V76.3805L50.45 76.3805L51.6357 76.3805V76.3552C66.1438 75.7344 77.7152 63.7762 77.7152 49.1153C77.7152 34.4545 66.1438 22.4962 51.6357 21.8755V21.8501H50.4659L50.45 21.8501L50.4341 21.8501H49.2648V21.8754C34.7565 22.4959 23.1848 34.4543 23.1848 49.1153C23.1848 53.4324 24.1881 57.5151 25.9743 61.143L24.9481 64.2216ZM25.5834 50.3008C25.8161 55.2636 27.502 59.8465 30.2252 63.6334C32.3269 62.9303 34.7535 62.3692 37.3722 61.9467C36.3567 58.4499 35.7434 54.4982 35.6458 50.3008H25.5834ZM38.1152 64.2294C35.8137 64.5864 33.6802 65.0496 31.81 65.6165C34.8321 69.0278 38.7762 71.6034 43.2519 72.9531C41.1855 70.836 39.423 67.8357 38.1152 64.2294ZM38.0173 50.3008C38.1179 54.4298 38.741 58.2695 39.7443 61.6079C42.7883 61.2268 46.0236 61.0181 49.2648 60.9772V50.3008H38.0173ZM61.1557 61.6079C58.112 61.2268 54.8768 61.0181 51.6357 60.9772V50.3008H62.8828C62.7821 54.4298 62.1591 58.2695 61.1557 61.6079ZM38.0173 47.9299H49.2648V38.4389C45.9085 38.3965 42.5584 38.1742 39.4207 37.7669C38.6076 40.8277 38.1066 44.2649 38.0173 47.9299ZM51.6357 47.9299V38.4389C54.9919 38.3965 58.3418 38.1742 61.4794 37.7669C62.2925 40.8278 62.7934 44.2649 62.8828 47.9299H51.6357ZM40.1142 35.465C43.0134 35.8247 46.1203 36.0271 49.2648 36.0678V24.3454C46.794 24.8612 44.2151 26.9939 42.0552 30.9681C41.3257 32.3103 40.6724 33.8187 40.1142 35.465ZM51.6357 36.0678V24.3455C54.1065 24.8615 56.6851 26.9941 58.8448 30.9681C59.5743 32.3103 60.2277 33.8188 60.7859 35.465C57.8868 35.8247 54.7802 36.0271 51.6357 36.0678ZM42.0552 67.2626C44.2151 71.2368 46.794 73.3694 49.2648 73.8853V63.3483C46.2674 63.387 43.3043 63.5727 40.5227 63.9016C40.9833 65.1108 41.4969 66.2354 42.0552 67.2626ZM51.6357 63.3483V73.8852C54.1065 73.3691 56.6851 71.2365 58.8448 67.2626C59.4031 66.2354 59.9168 65.1108 60.3774 63.9016C57.5959 63.5727 54.6329 63.3871 51.6357 63.3483ZM65.2543 50.3008C65.1567 54.4982 64.5434 58.4499 63.5279 61.9467C66.1466 62.3691 68.5731 62.9303 70.6749 63.6333C73.398 59.8465 75.0839 55.2636 75.3166 50.3008H65.2543ZM62.7849 64.2294C65.0864 64.5864 67.2198 65.0496 69.09 65.6165C66.068 69.0277 62.1239 71.6034 57.6482 72.9531C59.7146 70.836 61.4771 67.8356 62.7849 64.2294ZM25.5834 47.9299H35.6458C35.7329 44.1802 36.2317 40.6267 37.0611 37.4184C34.286 36.9563 31.7354 36.3364 29.5697 35.555C27.2325 39.1464 25.7968 43.3783 25.5834 47.9299ZM31.0216 33.5491C32.9708 34.1978 35.2472 34.7243 37.7287 35.1254C39.066 31.0174 40.9743 27.6109 43.2519 25.2775C38.3759 26.7479 34.1309 29.6734 31.0216 33.5491ZM63.839 37.4184C64.6684 40.6267 65.1671 44.1802 65.2543 47.9299H75.3166C75.1032 43.3783 73.6675 39.1464 71.3304 35.555C69.1647 36.3365 66.614 36.9563 63.839 37.4184ZM63.1714 35.1254C65.6528 34.7243 67.9293 34.1979 69.8785 33.5492C66.7692 29.6734 62.5242 26.7479 57.6482 25.2776C59.9258 27.611 61.8341 31.0174 63.1714 35.1254Z" fill="#005EF4"/>
</g>
<path fill-rule="evenodd" clip-rule="evenodd" d="M38.8131 73.8312C42.3435 75.4964 46.2883 76.4274 50.4505 76.4274C65.5346 76.4274 77.7626 64.1994 77.7626 49.1153C77.7626 34.0312 65.5346 21.8032 50.4505 21.8032C35.3664 21.8032 23.1384 34.0312 23.1384 49.1153C23.1384 53.4565 24.1512 57.5611 25.9535 61.2058L24.9482 64.2217C22.3222 59.7981 20.8145 54.6328 20.8145 49.1153C20.8145 32.7478 34.083 19.4792 50.4505 19.4792C66.8181 19.4792 80.0866 32.7478 80.0866 49.1153C80.0866 65.4829 66.8181 78.7514 50.4505 78.7514C45.1 78.7514 40.0807 77.3335 35.7478 74.853L38.8131 73.8312Z" fill="#005EF4"/>
<path fill-rule="evenodd" clip-rule="evenodd" d="M25.9935 61.18L24.5886 60.6838L17.6943 80.2049L16.6152 83.2602L19.6708 82.1818L39.4243 75.21L38.9403 73.8388C38.2569 73.5201 37.589 73.1739 36.9379 72.8016L21.6951 78.1814L27.0286 63.08C26.6594 62.4621 26.3139 61.8283 25.9935 61.18Z" fill="#005EF4"/>
<g filter="url(#filter2_i)">
<path d="M61.9699 18.9811C61.2276 18.6677 60.8917 17.7786 61.3515 17.1169C62.0893 16.0551 62.9936 15.1143 64.0327 14.3319C65.4773 13.2443 67.1462 12.4902 68.9185 12.1242C70.6909 11.7583 72.5224 11.7896 74.2806 12.2159C76.0388 12.6422 77.6796 13.4528 79.0844 14.5892C80.4892 15.7255 81.6228 17.1591 82.4031 18.7863C83.1834 20.4134 83.591 22.1933 83.5964 23.9973C83.6017 25.8013 83.2047 27.5842 82.4341 29.217C81.8708 30.4104 81.1182 31.5017 80.2081 32.4504C79.6655 33.0161 78.7576 32.8907 78.2937 32.2588C76.8238 30.2564 73.6963 26.1958 70.9784 23.9973C68.235 21.7782 64.1118 19.8852 61.9699 18.9811Z" fill="#FFE342"/>
</g>
<g filter="url(#filter3_i)">
<path d="M39.5309 18.9645C40.2891 18.662 40.6398 17.7615 40.1723 17.0923C39.4377 16.0405 38.5393 15.1082 37.5083 14.3319C36.0637 13.2443 34.3948 12.4902 32.6225 12.1242C30.8501 11.7583 29.0186 11.7896 27.2604 12.2159C25.5022 12.6422 23.8614 13.4528 22.4566 14.5892C21.0518 15.7255 19.9183 17.1591 19.1379 18.7863C18.3576 20.4134 17.95 22.1933 17.9446 23.9973C17.9393 25.8013 18.3363 27.5842 19.107 29.217C19.6608 30.3904 20.3977 31.4652 21.2874 32.4027C21.8432 32.9884 22.7835 32.8377 23.2368 32.1694C24.6146 30.1378 27.4768 26.1636 30.1548 23.9973C32.9151 21.7645 37.2819 19.862 39.5309 18.9645Z" fill="#FFE342"/>
</g>
<defs>
<filter id="filter0_i" x="64.1428" y="64.941" width="26.2054" height="24.4273" filterUnits="userSpaceOnUse" color-interpolation-filters="sRGB">
<feFlood flood-opacity="0" result="BackgroundImageFix"/>
<feBlend mode="normal" in="SourceGraphic" in2="BackgroundImageFix" result="shape"/>
<feColorMatrix in="SourceAlpha" type="matrix" values="0 0 0 0 0 0 0 0 0 0 0 0 0 0 0 0 0 0 127 0" result="hardAlpha"/>
<feOffset dx="-2.37089" dy="-0.592721"/>
<feGaussianBlur stdDeviation="1.18544"/>
<feComposite in2="hardAlpha" operator="arithmetic" k2="-1" k3="1"/>
<feColorMatrix type="matrix" values="0 0 0 0 0 0 0 0 0 0 0 0 0 0 0 0 0 0 0.25 0"/>
<feBlend mode="normal" in2="shape" result="effect1_innerShadow"/>
</filter>
<filter id="filter1_ii" x="18.4436" y="18.2938" width="62.8285" height="61.643" filterUnits="userSpaceOnUse" color-interpolation-filters="sRGB">
<feFlood flood-opacity="0" result="BackgroundImageFix"/>
<feBlend mode="normal" in="SourceGraphic" in2="BackgroundImageFix" result="shape"/>
<feColorMatrix in="SourceAlpha" type="matrix" values="0 0 0 0 0 0 0 0 0 0 0 0 0 0 0 0 0 0 127 0" result="hardAlpha"/>
<feOffset dx="-2.37089" dy="1.18544"/>
<feGaussianBlur stdDeviation="1.18544"/>
<feComposite in2="hardAlpha" operator="arithmetic" k2="-1" k3="1"/>
<feColorMatrix type="matrix" values="0 0 0 0 0 0 0 0 0 0 0 0 0 0 0 0 0 0 0.25 0"/>
<feBlend mode="normal" in2="shape" result="effect1_innerShadow"/>
<feColorMatrix in="SourceAlpha" type="matrix" values="0 0 0 0 0 0 0 0 0 0 0 0 0 0 0 0 0 0 127 0" result="hardAlpha"/>
<feOffset dx="1.18544" dy="-1.18544"/>
<feGaussianBlur stdDeviation="1.18544"/>
<feComposite in2="hardAlpha" operator="arithmetic" k2="-1" k3="1"/>
<feColorMatrix type="matrix" values="0 0 0 0 1 0 0 0 0 1 0 0 0 0 1 0 0 0 0.25 0"/>
<feBlend mode="normal" in2="effect1_innerShadow" result="effect2_innerShadow"/>
</filter>
<filter id="filter2_i" x="58.1902" y="10.6154" width="26.4424" height="24.654" filterUnits="userSpaceOnUse" color-interpolation-filters="sRGB">
<feFlood flood-opacity="0" result="BackgroundImageFix"/>
<feBlend mode="normal" in="SourceGraphic" in2="BackgroundImageFix" result="shape"/>
<feColorMatrix in="SourceAlpha" type="matrix" values="0 0 0 0 0 0 0 0 0 0 0 0 0 0 0 0 0 0 127 0" result="hardAlpha"/>
<feOffset dx="-1.78835"/>
<feGaussianBlur stdDeviation="1.34126"/>
<feComposite in2="hardAlpha" operator="arithmetic" k2="-1" k3="1"/>
<feColorMatrix type="matrix" values="0 0 0 0 0 0 0 0 0 0 0 0 0 0 0 0 0 0 0.25 0"/>
<feBlend mode="normal" in2="shape" result="effect1_innerShadow"/>
</filter>
<filter id="filter3_i" x="15.1199" y="10.6154" width="26.4424" height="24.654" filterUnits="userSpaceOnUse" color-interpolation-filters="sRGB">
<feFlood flood-opacity="0" result="BackgroundImageFix"/>
<feBlend mode="normal" in="SourceGraphic" in2="BackgroundImageFix" result="shape"/>
<feColorMatrix in="SourceAlpha" type="matrix" values="0 0 0 0 0 0 0 0 0 0 0 0 0 0 0 0 0 0 127 0" result="hardAlpha"/>
<feOffset dx="-1.78835"/>
<feGaussianBlur stdDeviation="1.34126"/>
<feComposite in2="hardAlpha" operator="arithmetic" k2="-1" k3="1"/>
<feColorMatrix type="matrix" values="0 0 0 0 0 0 0 0 0 0 0 0 0 0 0 0 0 0 0.25 0"/>
<feBlend mode="normal" in2="shape" result="effect1_innerShadow"/>
</filter>
</defs>
</svg>
